<svg xmlns="http://www.w3.org/2000/svg" viewBox="0 0 24 24" fill="currentColor">
  <path d="M10.006 5.064a4.794 4.794 0 0 1 8.44 3.193c.11-.007.22-.01.331-.01a3.75 3.75 0 0 1 .234 7.488h-.234c-.11 0-.22-.003-.331-.01a4.794 4.794 0 0 1-8.44 3.193 3.75 3.75 0 0 1-5.25-3.438 3.75 3.75 0 0 1 5.25-3.438zm8.44 3.193a4.794 4.794 0 0 0-8.44-3.193 3.75 3.75 0 0 0-5.25 3.438 3.75 3.75 0 0 0 5.25 3.438 4.794 4.794 0 0 0 8.44-3.193c.11.007.22.01.331.01a3.75 3.75 0 0 0-.234-7.488c-.11 0-.22.003-.331.01z"/>
</svg>